<mxfile host="app.diagrams.net" modified="2023-03-11T08:42:27.976Z" agent="5.0 (Windows NT 10.0; Win64; x64) AppleWebKit/537.36 (KHTML, like Gecko) Chrome/110.0.0.0 Safari/537.36 Edg/110.0.1587.69" etag="QTKr0Rh-RtuUGX8Jm3tw" version="21.0.6" type="github">
  <diagram name="第 1 页" id="vdaMi083LKCl8iQgbxjs">
    <mxGraphModel dx="954" dy="616" grid="1" gridSize="10" guides="1" tooltips="1" connect="1" arrows="1" fold="1" page="1" pageScale="1" pageWidth="827" pageHeight="1169" math="0" shadow="0">
      <root>
        <mxCell id="0" />
        <mxCell id="1" parent="0" />
        <mxCell id="P8iH71hj3sHe690LLrIs-3" value="" style="edgeStyle=orthogonalEdgeStyle;rounded=0;orthogonalLoop=1;jettySize=auto;html=1;" edge="1" parent="1" source="P8iH71hj3sHe690LLrIs-1" target="P8iH71hj3sHe690LLrIs-2">
          <mxGeometry relative="1" as="geometry" />
        </mxCell>
        <mxCell id="P8iH71hj3sHe690LLrIs-4" value="" style="edgeStyle=orthogonalEdgeStyle;rounded=0;orthogonalLoop=1;jettySize=auto;html=1;" edge="1" parent="1" source="P8iH71hj3sHe690LLrIs-1" target="P8iH71hj3sHe690LLrIs-2">
          <mxGeometry relative="1" as="geometry" />
        </mxCell>
        <mxCell id="P8iH71hj3sHe690LLrIs-5" value="" style="edgeStyle=orthogonalEdgeStyle;rounded=0;orthogonalLoop=1;jettySize=auto;html=1;" edge="1" parent="1" source="P8iH71hj3sHe690LLrIs-1" target="P8iH71hj3sHe690LLrIs-2">
          <mxGeometry relative="1" as="geometry" />
        </mxCell>
        <mxCell id="P8iH71hj3sHe690LLrIs-12" value="" style="edgeStyle=orthogonalEdgeStyle;rounded=0;orthogonalLoop=1;jettySize=auto;html=1;" edge="1" parent="1" source="P8iH71hj3sHe690LLrIs-1" target="P8iH71hj3sHe690LLrIs-2">
          <mxGeometry relative="1" as="geometry" />
        </mxCell>
        <mxCell id="P8iH71hj3sHe690LLrIs-14" style="edgeStyle=orthogonalEdgeStyle;rounded=0;orthogonalLoop=1;jettySize=auto;html=1;exitX=1;exitY=0.5;exitDx=0;exitDy=0;entryX=0;entryY=0.5;entryDx=0;entryDy=0;" edge="1" parent="1" source="P8iH71hj3sHe690LLrIs-1" target="P8iH71hj3sHe690LLrIs-13">
          <mxGeometry relative="1" as="geometry" />
        </mxCell>
        <mxCell id="P8iH71hj3sHe690LLrIs-22" value="" style="edgeStyle=orthogonalEdgeStyle;rounded=0;orthogonalLoop=1;jettySize=auto;html=1;" edge="1" parent="1" source="P8iH71hj3sHe690LLrIs-1" target="P8iH71hj3sHe690LLrIs-21">
          <mxGeometry relative="1" as="geometry" />
        </mxCell>
        <mxCell id="P8iH71hj3sHe690LLrIs-1" value="土地利用变化分析" style="rounded=0;whiteSpace=wrap;html=1;fillColor=#dae8fc;strokeColor=#6c8ebf;" vertex="1" parent="1">
          <mxGeometry x="80" y="132.5" width="110" height="60" as="geometry" />
        </mxCell>
        <mxCell id="P8iH71hj3sHe690LLrIs-20" value="" style="edgeStyle=orthogonalEdgeStyle;rounded=0;orthogonalLoop=1;jettySize=auto;html=1;" edge="1" parent="1" source="P8iH71hj3sHe690LLrIs-2" target="P8iH71hj3sHe690LLrIs-18">
          <mxGeometry relative="1" as="geometry" />
        </mxCell>
        <mxCell id="P8iH71hj3sHe690LLrIs-2" value="景观变化" style="rounded=0;whiteSpace=wrap;html=1;fillColor=#dae8fc;strokeColor=#6c8ebf;" vertex="1" parent="1">
          <mxGeometry x="250" y="112.5" width="120" height="30" as="geometry" />
        </mxCell>
        <mxCell id="P8iH71hj3sHe690LLrIs-16" value="" style="edgeStyle=orthogonalEdgeStyle;rounded=0;orthogonalLoop=1;jettySize=auto;html=1;" edge="1" parent="1" source="P8iH71hj3sHe690LLrIs-13" target="P8iH71hj3sHe690LLrIs-15">
          <mxGeometry relative="1" as="geometry" />
        </mxCell>
        <mxCell id="P8iH71hj3sHe690LLrIs-13" value="面积/区域变化" style="rounded=0;whiteSpace=wrap;html=1;fillColor=#dae8fc;strokeColor=#6c8ebf;" vertex="1" parent="1">
          <mxGeometry x="250" y="162.5" width="120" height="30" as="geometry" />
        </mxCell>
        <mxCell id="P8iH71hj3sHe690LLrIs-15" value="转移矩阵" style="shape=parallelogram;perimeter=parallelogramPerimeter;whiteSpace=wrap;html=1;fixedSize=1;fillColor=#dae8fc;strokeColor=#6c8ebf;rounded=0;" vertex="1" parent="1">
          <mxGeometry x="430" y="160" width="120" height="35" as="geometry" />
        </mxCell>
        <mxCell id="P8iH71hj3sHe690LLrIs-18" value="基于Fragstats的景观指数计算" style="shape=parallelogram;perimeter=parallelogramPerimeter;whiteSpace=wrap;html=1;fixedSize=1;fillColor=#dae8fc;strokeColor=#6c8ebf;rounded=0;" vertex="1" parent="1">
          <mxGeometry x="430" y="110" width="200" height="35" as="geometry" />
        </mxCell>
        <mxCell id="P8iH71hj3sHe690LLrIs-28" value="" style="edgeStyle=orthogonalEdgeStyle;rounded=0;orthogonalLoop=1;jettySize=auto;html=1;" edge="1" parent="1" source="P8iH71hj3sHe690LLrIs-21" target="P8iH71hj3sHe690LLrIs-27">
          <mxGeometry relative="1" as="geometry" />
        </mxCell>
        <mxCell id="P8iH71hj3sHe690LLrIs-36" style="edgeStyle=orthogonalEdgeStyle;rounded=0;orthogonalLoop=1;jettySize=auto;html=1;exitX=1;exitY=0.5;exitDx=0;exitDy=0;entryX=0;entryY=0.5;entryDx=0;entryDy=0;" edge="1" parent="1" source="P8iH71hj3sHe690LLrIs-21" target="P8iH71hj3sHe690LLrIs-35">
          <mxGeometry relative="1" as="geometry" />
        </mxCell>
        <mxCell id="P8iH71hj3sHe690LLrIs-21" value="土地利用惯性发展模拟" style="whiteSpace=wrap;html=1;fillColor=#dae8fc;strokeColor=#6c8ebf;rounded=0;" vertex="1" parent="1">
          <mxGeometry x="67.5" y="232.5" width="135" height="60" as="geometry" />
        </mxCell>
        <mxCell id="P8iH71hj3sHe690LLrIs-38" style="edgeStyle=orthogonalEdgeStyle;rounded=0;orthogonalLoop=1;jettySize=auto;html=1;exitX=1;exitY=0.5;exitDx=0;exitDy=0;" edge="1" parent="1" source="P8iH71hj3sHe690LLrIs-27" target="P8iH71hj3sHe690LLrIs-37">
          <mxGeometry relative="1" as="geometry" />
        </mxCell>
        <mxCell id="P8iH71hj3sHe690LLrIs-27" value="影响因子筛选" style="whiteSpace=wrap;html=1;fillColor=#dae8fc;strokeColor=#6c8ebf;rounded=0;" vertex="1" parent="1">
          <mxGeometry x="250" y="220" width="120" height="30" as="geometry" />
        </mxCell>
        <mxCell id="P8iH71hj3sHe690LLrIs-29" value="主要内容" style="shape=process;whiteSpace=wrap;html=1;backgroundOutline=1;" vertex="1" parent="1">
          <mxGeometry x="80" y="20" width="120" height="60" as="geometry" />
        </mxCell>
        <mxCell id="P8iH71hj3sHe690LLrIs-30" value="二级内容" style="shape=process;whiteSpace=wrap;html=1;backgroundOutline=1;" vertex="1" parent="1">
          <mxGeometry x="250" y="20" width="120" height="60" as="geometry" />
        </mxCell>
        <mxCell id="P8iH71hj3sHe690LLrIs-31" value="主要方法" style="shape=process;whiteSpace=wrap;html=1;backgroundOutline=1;" vertex="1" parent="1">
          <mxGeometry x="470" y="20" width="120" height="60" as="geometry" />
        </mxCell>
        <mxCell id="P8iH71hj3sHe690LLrIs-32" value="重要数据" style="shape=process;whiteSpace=wrap;html=1;backgroundOutline=1;" vertex="1" parent="1">
          <mxGeometry x="680" y="20" width="120" height="60" as="geometry" />
        </mxCell>
        <mxCell id="P8iH71hj3sHe690LLrIs-33" value="2000、2010、2020年CLCD 30m 土地利用数据" style="ellipse;whiteSpace=wrap;html=1;fillColor=#dae8fc;strokeColor=#6c8ebf;" vertex="1" parent="1">
          <mxGeometry x="680" y="119.5" width="140" height="80" as="geometry" />
        </mxCell>
        <mxCell id="P8iH71hj3sHe690LLrIs-34" value="" style="shape=flexArrow;endArrow=classic;html=1;rounded=0;exitX=0;exitY=0.5;exitDx=0;exitDy=0;fillColor=#dae8fc;strokeColor=#6c8ebf;" edge="1" parent="1" source="P8iH71hj3sHe690LLrIs-33">
          <mxGeometry width="50" height="50" relative="1" as="geometry">
            <mxPoint x="390" y="290" as="sourcePoint" />
            <mxPoint x="630" y="160" as="targetPoint" />
          </mxGeometry>
        </mxCell>
        <mxCell id="P8iH71hj3sHe690LLrIs-40" style="edgeStyle=orthogonalEdgeStyle;rounded=0;orthogonalLoop=1;jettySize=auto;html=1;exitX=1;exitY=0.5;exitDx=0;exitDy=0;entryX=0;entryY=0.5;entryDx=0;entryDy=0;" edge="1" parent="1" source="P8iH71hj3sHe690LLrIs-35" target="P8iH71hj3sHe690LLrIs-39">
          <mxGeometry relative="1" as="geometry" />
        </mxCell>
        <mxCell id="P8iH71hj3sHe690LLrIs-35" value="惯性发展模拟" style="whiteSpace=wrap;html=1;fillColor=#dae8fc;strokeColor=#6c8ebf;rounded=0;" vertex="1" parent="1">
          <mxGeometry x="250" y="270" width="120" height="30" as="geometry" />
        </mxCell>
        <mxCell id="P8iH71hj3sHe690LLrIs-79" style="edgeStyle=orthogonalEdgeStyle;rounded=0;orthogonalLoop=1;jettySize=auto;html=1;exitX=1;exitY=0.5;exitDx=0;exitDy=0;entryX=0;entryY=0.25;entryDx=0;entryDy=0;" edge="1" parent="1" source="P8iH71hj3sHe690LLrIs-37" target="P8iH71hj3sHe690LLrIs-59">
          <mxGeometry relative="1" as="geometry">
            <Array as="points">
              <mxPoint x="660" y="235" />
              <mxPoint x="660" y="210" />
            </Array>
          </mxGeometry>
        </mxCell>
        <mxCell id="P8iH71hj3sHe690LLrIs-37" value="基于（文献）？的印象因子筛选" style="shape=parallelogram;perimeter=parallelogramPerimeter;whiteSpace=wrap;html=1;fixedSize=1;fillColor=#dae8fc;strokeColor=#6c8ebf;rounded=0;" vertex="1" parent="1">
          <mxGeometry x="420" y="217.5" width="200" height="35" as="geometry" />
        </mxCell>
        <mxCell id="P8iH71hj3sHe690LLrIs-39" value="基于FLUS ANN-CA ？的模拟" style="shape=parallelogram;perimeter=parallelogramPerimeter;whiteSpace=wrap;html=1;fixedSize=1;fillColor=#dae8fc;strokeColor=#6c8ebf;rounded=0;" vertex="1" parent="1">
          <mxGeometry x="410" y="267.5" width="200" height="35" as="geometry" />
        </mxCell>
        <mxCell id="P8iH71hj3sHe690LLrIs-43" value="2000年基础、2010年验证&lt;br&gt;2020年实际模拟基础" style="ellipse;whiteSpace=wrap;html=1;fillColor=#dae8fc;strokeColor=#6c8ebf;" vertex="1" parent="1">
          <mxGeometry x="680" y="217.5" width="140" height="80" as="geometry" />
        </mxCell>
        <mxCell id="P8iH71hj3sHe690LLrIs-44" value="" style="shape=flexArrow;endArrow=classic;html=1;rounded=0;exitX=0;exitY=0.5;exitDx=0;exitDy=0;fillColor=#dae8fc;strokeColor=#6c8ebf;" edge="1" parent="1" source="P8iH71hj3sHe690LLrIs-43">
          <mxGeometry width="50" height="50" relative="1" as="geometry">
            <mxPoint x="400" y="300" as="sourcePoint" />
            <mxPoint x="640" y="258" as="targetPoint" />
          </mxGeometry>
        </mxCell>
        <mxCell id="P8iH71hj3sHe690LLrIs-58" value="Assets" style="childLayout=tableLayout;recursiveResize=0;strokeColor=#6c8ebf;fillColor=#dae8fc;shadow=1;" vertex="1" parent="1">
          <mxGeometry x="890" y="203.75" width="210" height="117.5" as="geometry" />
        </mxCell>
        <mxCell id="P8iH71hj3sHe690LLrIs-59" style="shape=tableRow;horizontal=0;startSize=0;swimlaneHead=0;swimlaneBody=0;top=0;left=0;bottom=0;right=0;dropTarget=0;collapsible=0;recursiveResize=0;expand=0;fontStyle=0;strokeColor=inherit;fillColor=#ffffff;" vertex="1" parent="P8iH71hj3sHe690LLrIs-58">
          <mxGeometry width="210" height="24" as="geometry" />
        </mxCell>
        <mxCell id="P8iH71hj3sHe690LLrIs-60" value="自然" style="connectable=0;recursiveResize=0;strokeColor=#6c8ebf;fillColor=#dae8fc;align=center;fontStyle=1;html=1;" vertex="1" parent="P8iH71hj3sHe690LLrIs-59">
          <mxGeometry width="70" height="24" as="geometry">
            <mxRectangle width="70" height="24" as="alternateBounds" />
          </mxGeometry>
        </mxCell>
        <mxCell id="P8iH71hj3sHe690LLrIs-61" value="Title 2" style="connectable=0;recursiveResize=0;strokeColor=#6c8ebf;fillColor=#dae8fc;align=center;fontStyle=1;html=1;" vertex="1" parent="P8iH71hj3sHe690LLrIs-59">
          <mxGeometry x="70" width="70" height="24" as="geometry">
            <mxRectangle width="70" height="24" as="alternateBounds" />
          </mxGeometry>
        </mxCell>
        <mxCell id="P8iH71hj3sHe690LLrIs-62" value="Title 3" style="connectable=0;recursiveResize=0;strokeColor=#6c8ebf;fillColor=#dae8fc;align=center;fontStyle=1;html=1;" vertex="1" parent="P8iH71hj3sHe690LLrIs-59">
          <mxGeometry x="140" width="70" height="24" as="geometry">
            <mxRectangle width="70" height="24" as="alternateBounds" />
          </mxGeometry>
        </mxCell>
        <mxCell id="P8iH71hj3sHe690LLrIs-63" value="" style="shape=tableRow;horizontal=0;startSize=0;swimlaneHead=0;swimlaneBody=0;top=0;left=0;bottom=0;right=0;dropTarget=0;collapsible=0;recursiveResize=0;expand=0;fontStyle=0;strokeColor=inherit;fillColor=#ffffff;" vertex="1" parent="P8iH71hj3sHe690LLrIs-58">
          <mxGeometry y="24" width="210" height="24" as="geometry" />
        </mxCell>
        <mxCell id="P8iH71hj3sHe690LLrIs-64" value="Value 1" style="connectable=0;recursiveResize=0;strokeColor=inherit;fillColor=inherit;align=center;whiteSpace=wrap;html=1;" vertex="1" parent="P8iH71hj3sHe690LLrIs-63">
          <mxGeometry width="70" height="24" as="geometry">
            <mxRectangle width="70" height="24" as="alternateBounds" />
          </mxGeometry>
        </mxCell>
        <mxCell id="P8iH71hj3sHe690LLrIs-65" value="Value 2" style="connectable=0;recursiveResize=0;strokeColor=inherit;fillColor=inherit;align=center;whiteSpace=wrap;html=1;" vertex="1" parent="P8iH71hj3sHe690LLrIs-63">
          <mxGeometry x="70" width="70" height="24" as="geometry">
            <mxRectangle width="70" height="24" as="alternateBounds" />
          </mxGeometry>
        </mxCell>
        <mxCell id="P8iH71hj3sHe690LLrIs-66" value="Value 3" style="connectable=0;recursiveResize=0;strokeColor=inherit;fillColor=inherit;align=center;whiteSpace=wrap;html=1;" vertex="1" parent="P8iH71hj3sHe690LLrIs-63">
          <mxGeometry x="140" width="70" height="24" as="geometry">
            <mxRectangle width="70" height="24" as="alternateBounds" />
          </mxGeometry>
        </mxCell>
        <mxCell id="P8iH71hj3sHe690LLrIs-67" value="" style="shape=tableRow;horizontal=0;startSize=0;swimlaneHead=0;swimlaneBody=0;top=0;left=0;bottom=0;right=0;dropTarget=0;collapsible=0;recursiveResize=0;expand=0;fontStyle=1;strokeColor=inherit;fillColor=#EAF2D3;" vertex="1" parent="P8iH71hj3sHe690LLrIs-58">
          <mxGeometry y="48" width="210" height="23" as="geometry" />
        </mxCell>
        <mxCell id="P8iH71hj3sHe690LLrIs-68" value="Value 4" style="connectable=0;recursiveResize=0;whiteSpace=wrap;html=1;" vertex="1" parent="P8iH71hj3sHe690LLrIs-67">
          <mxGeometry width="70" height="23" as="geometry">
            <mxRectangle width="70" height="23" as="alternateBounds" />
          </mxGeometry>
        </mxCell>
        <mxCell id="P8iH71hj3sHe690LLrIs-69" value="Value 5" style="connectable=0;recursiveResize=0;whiteSpace=wrap;html=1;" vertex="1" parent="P8iH71hj3sHe690LLrIs-67">
          <mxGeometry x="70" width="70" height="23" as="geometry">
            <mxRectangle width="70" height="23" as="alternateBounds" />
          </mxGeometry>
        </mxCell>
        <mxCell id="P8iH71hj3sHe690LLrIs-70" value="Value 6" style="connectable=0;recursiveResize=0;whiteSpace=wrap;html=1;" vertex="1" parent="P8iH71hj3sHe690LLrIs-67">
          <mxGeometry x="140" width="70" height="23" as="geometry">
            <mxRectangle width="70" height="23" as="alternateBounds" />
          </mxGeometry>
        </mxCell>
        <mxCell id="P8iH71hj3sHe690LLrIs-71" value="" style="shape=tableRow;horizontal=0;startSize=0;swimlaneHead=0;swimlaneBody=0;top=0;left=0;bottom=0;right=0;dropTarget=0;collapsible=0;recursiveResize=0;expand=0;fontStyle=0;strokeColor=inherit;fillColor=#ffffff;" vertex="1" parent="P8iH71hj3sHe690LLrIs-58">
          <mxGeometry y="71" width="210" height="24" as="geometry" />
        </mxCell>
        <mxCell id="P8iH71hj3sHe690LLrIs-72" value="Value 7" style="connectable=0;recursiveResize=0;strokeColor=inherit;fillColor=inherit;fontStyle=0;align=center;whiteSpace=wrap;html=1;" vertex="1" parent="P8iH71hj3sHe690LLrIs-71">
          <mxGeometry width="70" height="24" as="geometry">
            <mxRectangle width="70" height="24" as="alternateBounds" />
          </mxGeometry>
        </mxCell>
        <mxCell id="P8iH71hj3sHe690LLrIs-73" value="Value 8" style="connectable=0;recursiveResize=0;strokeColor=inherit;fillColor=inherit;fontStyle=0;align=center;whiteSpace=wrap;html=1;" vertex="1" parent="P8iH71hj3sHe690LLrIs-71">
          <mxGeometry x="70" width="70" height="24" as="geometry">
            <mxRectangle width="70" height="24" as="alternateBounds" />
          </mxGeometry>
        </mxCell>
        <mxCell id="P8iH71hj3sHe690LLrIs-74" value="Value 9" style="connectable=0;recursiveResize=0;strokeColor=inherit;fillColor=inherit;fontStyle=0;align=center;whiteSpace=wrap;html=1;" vertex="1" parent="P8iH71hj3sHe690LLrIs-71">
          <mxGeometry x="140" width="70" height="24" as="geometry">
            <mxRectangle width="70" height="24" as="alternateBounds" />
          </mxGeometry>
        </mxCell>
        <mxCell id="P8iH71hj3sHe690LLrIs-75" value="" style="shape=tableRow;horizontal=0;startSize=0;swimlaneHead=0;swimlaneBody=0;top=0;left=0;bottom=0;right=0;dropTarget=0;collapsible=0;recursiveResize=0;expand=0;fontStyle=1;strokeColor=inherit;fillColor=#EAF2D3;" vertex="1" parent="P8iH71hj3sHe690LLrIs-58">
          <mxGeometry y="95" width="210" height="23" as="geometry" />
        </mxCell>
        <mxCell id="P8iH71hj3sHe690LLrIs-76" value="Value 10" style="connectable=0;recursiveResize=0;whiteSpace=wrap;html=1;" vertex="1" parent="P8iH71hj3sHe690LLrIs-75">
          <mxGeometry width="70" height="23" as="geometry">
            <mxRectangle width="70" height="23" as="alternateBounds" />
          </mxGeometry>
        </mxCell>
        <mxCell id="P8iH71hj3sHe690LLrIs-77" value="Value 11" style="connectable=0;recursiveResize=0;whiteSpace=wrap;html=1;" vertex="1" parent="P8iH71hj3sHe690LLrIs-75">
          <mxGeometry x="70" width="70" height="23" as="geometry">
            <mxRectangle width="70" height="23" as="alternateBounds" />
          </mxGeometry>
        </mxCell>
        <mxCell id="P8iH71hj3sHe690LLrIs-78" value="Value 12" style="connectable=0;recursiveResize=0;whiteSpace=wrap;html=1;" vertex="1" parent="P8iH71hj3sHe690LLrIs-75">
          <mxGeometry x="140" width="70" height="23" as="geometry">
            <mxRectangle width="70" height="23" as="alternateBounds" />
          </mxGeometry>
        </mxCell>
      </root>
    </mxGraphModel>
  </diagram>
</mxfile>
